# xmcd
#
# Track frame offsets: 
#        150
#        13920
#        26820
#        42597
#        48049
#        69477
#        84147
#        97971
#        112858
#        129498
#        138950
#        155760
#        163618
#        173705
#        182611
#        193860
#        205191
#        216509
#        225325
#        241024
#        256644
#        280207
#        292191
#        303990
#        314377
#        332026
#
# Disc length: 4645 seconds
#
# Revision: 0
# Processed by: cddbd v1.5.2PL0 Copyright (c) Steve Scherf et al.
# Submitted via: ExactAudioCopyFreeDBPlugin 1.0
#
DISCID=6812231a
DTITLE=Bobbie Gentry - The Girl From Chickasaw County CD8 - Live At Th
DTITLE=e BBC
DYEAR=1900
DGENRE=
TTITLE0=Mississippi Delta
TTITLE1=Papa Won't You Let Me Go To Town With You
TTITLE2=I Saw An Angel Die
TTITLE3=My Dog Sargent
TTITLE4=Ode To Billie Joe
TTITLE5=Mornin' Glory
TTITLE6=Sunday Best
TTITLE7=Hurry Tuesday Child
TTITLE8=Nikki Hokey - Barefootin'
TTITLE9=Penduli Pendulum
TTITLE10=Ace Inurance Man
TTITLE11=Chickasaw County Child
TTITLE12=Recollection
TTITLE13=Sweete Peony
TTITLE14=Refractions
TTITLE15=Greyhound Goin' Somewhere
TTITLE16=Cotton Candy Sandman
TTITLE17=Open Your Window
TTITLE18=Mother Nature's Son
TTITLE19=Mr. Bojangles
TTITLE20=Your Number One Fan
TTITLE21=He Made A Woman Out Of Me
TTITLE22=Billy The Kid
TTITLE23=Wailing Of The Willow
TTITLE24=Belinda
TTITLE25=Circle 'Round The Sun
EXTD=
EXTT0=
EXTT1=
EXTT2=
EXTT3=
EXTT4=
EXTT5=
EXTT6=
EXTT7=
EXTT8=
EXTT9=
EXTT10=
EXTT11=
EXTT12=
EXTT13=
EXTT14=
EXTT15=
EXTT16=
EXTT17=
EXTT18=
EXTT19=
EXTT20=
EXTT21=
EXTT22=
EXTT23=
EXTT24=
EXTT25=
PLAYORDER=
